# xmcd
# 
# Track frame offsets:
#     150
#     17402
#     35001
#     49135
#     60897
#     74774
#     90424
#     103849
#     115409
#     132186
#     144088
#     159734
#     173638
#     185486
#     199691
#     210796
#     226411
#     241229
#     256553
# 
# Disc length: 3773
# 
# Revision: 2
# Processed by: cddbd v1.5.2PL0 Copyright (c) Steve Scherf et al.
# Submitted via: BonkEnc v1.0.8
# 
DISCID=f60ebb13
DTITLE=César Menotti and Fabiano - Voz do Coração
DYEAR=2008
DGENRE=Country
TTITLE0=Natural
TTITLE1=Tarde Demais
TTITLE2=Do lado esquerdo
TTITLE3=Ciumenta
TTITLE4=Máquina do Tempo
TTITLE5=Caso por acaso
TTITLE6=Resumindo
TTITLE7=Maluco pro Você
TTITLE8=Rédeas do possante
TTITLE9=Pára de chorar
TTITLE10=Superfantástico/Lindo Balão Azul
TTITLE11=Segura na mão de Deus
TTITLE12=Horóscopo
TTITLE13=Você vai ver/Brincar de ser feliz
TTITLE14=As andorinhas/Sincero amor
TTITLE15=Se o rei mandar
TTITLE16=Minas não tem mar
TTITLE17=Me dê motivo
TTITLE18=Tá no seu olhar/Lugar melhor que BH
EXTD=Cesar Menotti e Fabiano - Voz do coração - Ao Vivo
EXTT0=
EXTT1=
EXTT2=
EXTT3=
EXTT4=
EXTT5=
EXTT6=
EXTT7=
EXTT8=
EXTT9=
EXTT10=
EXTT11=
EXTT12=
EXTT13=
EXTT14=
EXTT15=
EXTT16=
EXTT17=
EXTT18=
PLAYORDER=
